<svg version="1.1" xmlns="http://www.w3.org/2000/svg" style="display: block;" viewBox="297.333 54.667 1572 1908" width="1572" height="1908" preserveAspectRatio="none">
<path transform="translate(0,0)" fill="rgb(25,23,24)" d="M 878.061 987.719 C 954.271 985.537 1017.86 1045.47 1020.2 1121.67 C 1022.53 1197.88 962.731 1261.59 886.53 1264.07 C 810.113 1266.57 746.182 1206.56 743.84 1130.14 C 741.498 1053.72 801.635 989.907 878.061 987.719 z"></path>
<path transform="translate(0,0)" fill="rgb(25,23,24)" d="M 454.259 988.406 C 482.867 987.521 516.401 1003.17 537.429 1022.18 C 565.477 1048.05 582.252 1083.89 584.145 1121.99 C 587.434 1195.9 540.309 1259.84 463.755 1263.4 C 325.011 1259.48 285.775 1059.77 408.157 999.283 C 423.327 991.785 437.618 989.742 454.259 988.406 z"></path>
<path transform="translate(0,0)" fill="rgb(203,203,204)" d="M 664.408 690.371 C 736.473 689.428 795.707 746.989 796.829 819.051 C 797.952 891.114 740.539 950.491 668.479 951.793 C 596.165 953.099 536.533 895.44 535.407 823.123 C 534.281 750.806 592.088 691.318 664.408 690.371 z"></path>
<path transform="translate(0,0)" fill="rgb(203,203,204)" d="M 1074.97 690.803 C 1145.49 683.259 1208.71 734.464 1215.99 805.015 C 1223.26 875.565 1171.81 938.593 1101.24 945.597 C 1031.04 952.563 968.425 901.454 961.19 831.285 C 953.955 761.115 1004.82 698.306 1074.97 690.803 z"></path>
<path transform="translate(0,0)" fill="rgb(25,23,24)" d="M 1301.73 986.451 C 1326.85 986.691 1353.11 997.856 1371.52 1014.78 C 1454.24 1090.79 1407.75 1258.88 1289.17 1263.52 C 1222.11 1262.12 1180.9 1204.17 1176.38 1141.39 C 1173.36 1100.7 1186.68 1060.49 1213.4 1029.65 C 1237.3 1002.16 1265.78 988.815 1301.73 986.451 z"></path>
<path transform="translate(0,0)" fill="rgb(203,203,204)" d="M 653.235 1292.29 C 661.674 1291.84 670.027 1291.58 678.474 1292.11 C 744.854 1296.33 802.959 1361.79 797.844 1428.4 C 796.209 1449.68 787.412 1470.39 775.131 1487.59 C 756.079 1514.28 730.292 1528.34 698.427 1533.69 C 665.653 1536.13 639.665 1530 612.207 1510.98 C 557.905 1473.36 533.628 1393.92 574.305 1337.68 C 594.753 1309.41 619.771 1298.13 653.235 1292.29 z"></path>
<path transform="translate(0,0)" fill="rgb(203,203,204)" d="M 1074.1 1293.4 C 1098.99 1289.44 1127.77 1298.2 1148.13 1312.72 C 1171.54 1329.24 1187.24 1354.55 1191.62 1382.87 C 1196.35 1412.83 1190.68 1438.4 1175.4 1464.44 C 1151.74 1504.76 1118.24 1526.45 1072.26 1533.46 C 1046.46 1537.53 1016.22 1527.85 996.03 1511.76 C 972.463 1493.22 957.528 1465.83 954.709 1435.97 C 947.447 1365.58 1004.78 1300.5 1074.1 1293.4 z"></path>
<path transform="translate(0,0)" fill="rgb(203,203,204)" d="M 863.598 428.005 C 927.7 419.902 986.178 465.443 994.025 529.576 C 1001.87 593.709 956.099 652.006 891.935 659.597 C 828.132 667.146 770.234 621.686 762.431 557.913 C 754.628 494.14 799.857 436.062 863.598 428.005 z"></path>
<path transform="translate(0,0)" fill="rgb(203,203,204)" d="M 1429.18 685.308 C 1448.29 683.055 1469.69 690.314 1485 701.866 C 1546.75 748.46 1572.34 852.454 1525.65 917.622 C 1512.58 935.859 1495.68 944.308 1474 947.457 C 1453.94 949.37 1432.18 941.29 1416.04 929.008 C 1355.83 883.19 1331.72 780.93 1376.74 717.192 C 1388.8 700.122 1408.51 688.305 1429.18 685.308 z"></path>
<path transform="translate(0,0)" fill="rgb(203,203,204)" d="M 1207.59 429.389 C 1289.91 424.407 1379.63 551.251 1327.87 624.301 C 1314.97 642.506 1296.37 650.367 1275.26 653.878 C 1206.87 655.832 1144.18 592.21 1137.52 525.708 C 1132.73 477.787 1156.19 434.035 1207.59 429.389 z"></path>
<path transform="translate(0,0)" fill="rgb(203,203,204)" d="M 1438.67 1292.36 C 1476.82 1289.67 1498.73 1308.1 1508.31 1344.27 C 1518.74 1383.68 1504.71 1423.88 1484.75 1457.81 C 1463.05 1494.69 1432.78 1521.5 1391.05 1532.36 C 1377.1 1533.59 1362.08 1532.32 1350.6 1524.07 C 1298.35 1486.51 1315.66 1405.79 1346.34 1360.65 C 1370.94 1324.46 1397.35 1301.54 1438.67 1292.36 z"></path>
<path transform="translate(0,0)" fill="rgb(203,203,204)" d="M 1613.51 987.163 C 1650.94 983.371 1673.6 1025.21 1681.22 1056.1 C 1693.91 1107.57 1685.2 1168.18 1658.16 1213.92 C 1646.14 1234.26 1629.38 1252.22 1605.92 1258.03 C 1564.26 1263.95 1543.43 1224.1 1535.42 1189.37 C 1521.7 1129.54 1533.57 1058.43 1574.03 1010.96 C 1584.7 998.425 1597.53 990.666 1613.51 987.163 z"></path>
<path transform="translate(0,0)" fill="rgb(203,203,204)" d="M 868.849 1568.37 C 959.316 1565.65 1012 1650.51 953.318 1725.22 C 935.46 1747.96 909.741 1759.57 881.079 1762.06 C 856.24 1762.6 826.439 1756.36 807.373 1739.84 C 732.169 1674.69 777.944 1579.06 868.849 1568.37 z"></path>
<path transform="translate(0,0)" fill="rgb(25,23,24)" d="M 557.656 445.414 C 573.231 444.467 588.461 449.91 600.003 460.174 C 645.45 500.59 624.818 572.829 588.32 611.774 C 564.474 637.219 542.077 650.923 507.519 652.735 C 418.443 650.386 426.877 546.415 472.251 497.202 C 497.884 469.401 518.531 449.482 557.656 445.414 z"></path>
<path transform="translate(0,0)" fill="rgb(25,23,24)" d="M 510.589 1566.35 L 511.548 1566.24 C 590.295 1558.14 683.597 1670.9 631.304 1743.67 C 621.583 1757.2 604.908 1762.19 589.069 1763.79 C 526.871 1763.19 463.411 1704.51 452.77 1643.71 C 445.75 1603.61 470.024 1571.97 510.589 1566.35 z"></path>
<path transform="translate(0,0)" fill="rgb(203,203,204)" d="M 1218.92 1568.32 C 1293.36 1565.95 1296.78 1638.06 1261.81 1685.21 C 1235.11 1721.23 1203.16 1752.77 1157.65 1761.8 C 1142.1 1763.23 1127.07 1762.14 1114.57 1751.9 C 1076.16 1720.44 1098.04 1660.11 1123.09 1628.47 C 1148.62 1596.22 1178.72 1573.92 1218.92 1568.32 z"></path>
<path transform="translate(0,0)" fill="rgb(25,86,171)" d="M 1458.95 429.212 C 1545.68 424.171 1656.27 631.833 1569.53 652.86 C 1480.93 658.553 1372.46 451.043 1458.95 429.212 z"></path>
<path transform="translate(0,0)" fill="rgb(25,23,24)" d="M 725.799 226.34 C 744.425 224.302 762.721 228.603 777.604 240.219 C 793.405 252.541 803.652 270.646 806.083 290.535 C 809.061 314.984 797.538 341.661 782.314 360.187 C 761.194 385.886 736.964 397.715 704.499 401.203 C 628.79 402.857 597.642 333.442 644.515 275.483 C 666.813 247.912 689.995 231.545 725.799 226.34 z"></path>
<path transform="translate(0,0)" fill="rgb(25,23,24)" d="M 989.32 225.448 C 1010.48 222.315 1041.39 238.589 1057.66 251.156 C 1115.08 295.525 1131.25 390.54 1037.25 399.798 C 1007.77 398.637 984.502 390.389 961.631 371.269 C 926.327 341.831 905.468 287.087 938.839 248.265 C 952.134 232.798 969.512 226.751 989.32 225.448 z"></path>
<path transform="translate(0,0)" fill="rgb(25,86,171)" d="M 1675.87 685.192 C 1711.94 685.428 1737.82 741.476 1748.11 770.39 C 1764.48 816.414 1772.23 876.936 1752.92 923.351 C 1748.51 933.962 1740.4 941.229 1729.66 944.86 C 1655.68 948.963 1601.61 699.822 1675.87 685.192 z"></path>
<path transform="translate(0,0)" fill="rgb(25,86,171)" d="M 1689.34 1293.17 C 1769.57 1284.6 1683.02 1508.73 1608.7 1531.89 C 1534.66 1547.1 1608.75 1323.29 1689.34 1293.17 z"></path>
<path transform="translate(0,0)" fill="rgb(25,23,24)" d="M 1210.8 225.396 C 1300.31 231.92 1419.86 385.988 1331.77 398.588 C 1303.11 398.973 1275.9 385.39 1253.83 367.326 C 1223.49 342.491 1186.28 301.591 1181.2 261.177 C 1180.15 252.845 1181.25 241.53 1187.12 235.285 C 1194.39 227.554 1201.08 226.137 1210.8 225.396 z"></path>
<path transform="translate(0,0)" fill="rgb(25,86,171)" d="M 1488.51 1567.29 C 1533.82 1568.65 1512.24 1625.35 1497.94 1647.79 C 1470.19 1691.35 1418.03 1748.37 1367.12 1761.15 C 1354.48 1763.05 1340.17 1759.3 1338.39 1744.93 C 1334.64 1714.61 1358.63 1675.91 1375.6 1653.08 C 1401.71 1617.95 1443.39 1574.16 1488.51 1567.29 z"></path>
<path transform="translate(0,0)" fill="rgb(25,23,24)" d="M 713.87 1788.29 C 810.767 1779.6 852.517 1917.06 765.056 1924.33 C 745.324 1920.9 730.323 1916.49 712.513 1905.29 C 683.157 1886.83 648.696 1846.38 672.565 1810.66 C 681.76 1796.9 698.025 1791.06 713.87 1788.29 z"></path>
<path transform="translate(0,0)" fill="rgb(25,23,24)" d="M 999.504 1788.31 C 1049.83 1782.75 1064.17 1826.08 1040.05 1865.12 C 1021.53 1895.19 991.685 1916.54 957.245 1924.36 C 874.606 1934.85 886.841 1804.01 999.504 1788.31 z"></path>
<path transform="translate(0,0)" fill="rgb(25,86,171)" d="M 1799.23 988.826 C 1821.51 987.638 1825.59 1034.01 1826.68 1049.37 C 1830.56 1103.65 1817.14 1211.11 1782.11 1252.07 C 1737.41 1282.74 1752.28 1027.3 1799.23 988.826 z"></path>
<path transform="translate(0,0)" fill="rgb(25,86,171)" d="M 1362.14 225.195 C 1414.97 229.032 1501.73 309.526 1527.92 354.672 C 1535.18 367.184 1545.96 388.832 1528.56 397.732 C 1519.17 398.042 1512.19 396.81 1503.58 392.348 C 1458.3 368.892 1419.43 327.674 1386.06 289.729 C 1374.53 275.749 1360.44 260.918 1353.92 243.805 C 1350.27 234.194 1351.93 227.897 1362.14 225.195 z"></path>
<path transform="translate(0,0)" fill="rgb(25,23,24)" d="M 1240.09 1788.32 C 1248.54 1788.43 1259.84 1790.06 1262.61 1799.54 C 1264.73 1806.78 1261.47 1818.42 1257.4 1824.37 C 1228.49 1866.54 1160.85 1910.55 1112.41 1923.55 C 1036.03 1937.39 1162.31 1797.38 1240.09 1788.32 z"></path>
<path transform="translate(0,0)" fill="rgb(203,203,204)" d="M 846.388 92.2189 C 919.203 87.2093 956.479 186.894 872.236 202.772 C 783.443 208.124 770.307 110.257 846.388 92.2189 z"></path>
<path transform="translate(0,0)" fill="rgb(25,86,171)" d="M 1605.58 431.709 C 1653.17 442.88 1764.06 620.896 1737.51 654.325 C 1696.54 652.592 1606.48 486.681 1601.66 444.021 C 1601.04 438.484 1601.72 435.553 1605.58 431.709 z"></path>
<path transform="translate(0,0)" fill="rgb(203,203,204)" d="M 987.788 92.245 C 1036.28 89.3724 1159.57 179.661 1098.85 202.588 C 1075.62 205.028 1060.54 200.169 1039.35 188.13 C 1012.1 171.725 981.691 146.61 971.364 115.421 C 967.089 102.509 976.1 94.7097 987.788 92.245 z"></path>
<path transform="translate(0,0)" fill="rgb(25,86,171)" d="M 1645.85 1565.94 C 1648.44 1566.84 1647.57 1566.4 1649.73 1568.11 C 1651.86 1573.32 1649.24 1581.25 1647.28 1585.91 C 1627.58 1632.67 1525.37 1745.22 1484.3 1762.57 C 1481.54 1762.34 1481.63 1762.51 1479.35 1761.01 C 1472.81 1739.25 1590.39 1607.48 1612.4 1588.34 C 1622 1579.99 1633.36 1570.02 1645.85 1565.94 z"></path>
<path transform="translate(0,0)" fill="rgb(25,86,171)" d="M 1400.21 1788.24 C 1401 1788.33 1403.72 1788.57 1404.56 1788.89 C 1406.79 1789.74 1408.06 1791.09 1408.63 1793.42 C 1409.42 1796.7 1406.7 1801.75 1405.06 1804.39 C 1376.32 1850.74 1275.39 1907 1225.22 1919.09 C 1222.27 1919.7 1220.65 1920.41 1217.91 1919.25 L 1217.33 1917.38 C 1217.72 1916.37 1218.26 1914.87 1218.92 1914.03 C 1247.74 1877.27 1358.05 1795.34 1400.21 1788.24 z"></path>
<path transform="translate(0,0)" fill="rgb(25,86,171)" d="M 1106.96 96.1972 C 1139.18 95.5423 1198.58 130.411 1227.07 147.25 C 1236.72 152.956 1293.56 192.061 1273.76 203.448 C 1259.34 204.821 1249.87 200.902 1236.8 196.01 C 1208.2 185.312 1113.49 125.797 1103.6 101.158 C 1104.35 97.4292 1103.54 99.1784 1106.96 96.1972 z"></path>
<path transform="translate(0,0)" fill="rgb(25,86,171)" d="M 1785.67 724.49 C 1794.67 730.81 1803.83 760.844 1806.95 772.186 C 1819.1 816.378 1838.33 888.658 1827.76 933.759 L 1826.42 934.845 L 1824.68 933.718 C 1810.66 908.751 1780.95 753.817 1785.67 724.49 z"></path>
<path transform="translate(0,0)" fill="rgb(25,86,171)" d="M 1790.32 1296.75 C 1791.45 1298.03 1791.45 1297.64 1791.4 1299.2 C 1791.14 1307.17 1787.78 1318.34 1785.79 1326 C 1775.55 1365.44 1741.63 1454.14 1716.04 1483.02 L 1715.42 1482.14 C 1719.38 1458.45 1774.8 1317.78 1790.32 1296.75 z"></path>
<path transform="translate(0,0)" fill="rgb(25,86,171)" d="M 1248.16 130.713 C 1273.35 134.954 1350.47 175.679 1362.23 197.348 C 1339.9 192.988 1266.43 148.801 1248.16 130.713 z"></path>
</svg>